<svg width="70" height="23" viewBox="0 0 70 23" fill="none" xmlns="http://www.w3.org/2000/svg">
<path d="M63.9718 6.22589H49.3692L49.3098 6.01763H49.3097C49.1804 5.56902 48.909 5.17453 48.5363 4.89317C48.1636 4.61194 47.71 4.45906 47.243 4.45764H45.4239C45.1897 4.45764 44.9999 4.64745 44.9999 4.88168C44.9999 5.11578 45.1897 5.30558 45.4239 5.30558H47.243C47.5257 5.30657 47.8004 5.39899 48.0261 5.56934C48.2517 5.7397 48.4159 5.97848 48.4943 6.25003L51.0632 15.2643C51.233 15.8528 51.5891 16.3704 52.078 16.7393C52.5669 17.1083 53.1623 17.3087 53.7747 17.3106H63.1314C63.3656 17.3106 63.5554 17.1208 63.5554 16.8866C63.5554 16.6525 63.3656 16.4627 63.1314 16.4627H53.7747C53.3464 16.4614 52.9302 16.3211 52.5883 16.0632C52.2465 15.8051 51.9976 15.4432 51.8789 15.0317L51.7073 14.4296H61.0004C61.9007 14.4286 62.7637 14.0705 63.4002 13.4339C64.0367 12.7974 64.3947 11.9344 64.3957 11.0342V6.6499C64.3957 6.41581 64.2059 6.22601 63.9718 6.22601L63.9718 6.22589ZM63.5478 11.0343C63.5471 11.7096 63.2784 12.3571 62.8009 12.8347C62.3234 13.3124 61.6759 13.581 61.0004 13.5818H51.4657L50.1321 8.90278H59.2962C59.5304 8.90278 59.7202 8.71298 59.7202 8.47874C59.7202 8.24465 59.5304 8.05485 59.2962 8.05485H49.8904L49.6108 7.0739H63.548L63.5478 11.0343Z" fill="#1B1A1A"/>
<path d="M53.047 18.6238C52.5206 18.6238 52.0156 18.8328 51.6434 19.205C51.2712 19.5772 51.0621 20.0821 51.062 20.6085C51.062 21.1348 51.2709 21.6397 51.6431 22.0119C52.0154 22.3841 52.5202 22.5934 53.0466 22.5934C53.5729 22.5934 54.0778 22.3844 54.45 22.0122C54.8224 21.64 55.0315 21.1351 55.0315 20.6087C55.0309 20.0826 54.8216 19.5781 54.4496 19.206C54.0776 18.8339 53.5731 18.6245 53.047 18.6238L53.047 18.6238ZM53.047 21.7455C52.7455 21.7455 52.4563 21.6258 52.2431 21.4126C52.0298 21.1993 51.91 20.9102 51.91 20.6086C51.9099 20.3071 52.0297 20.0179 52.2429 19.8049C52.4562 19.5916 52.7453 19.4718 53.0469 19.4718C53.3484 19.4718 53.6376 19.5916 53.8506 19.8049C54.0639 20.0181 54.1835 20.3072 54.1835 20.6088C54.1833 20.9102 54.0633 21.199 53.8502 21.4121C53.6371 21.6252 53.3483 21.745 53.047 21.7454L53.047 21.7455Z" fill="#1B1A1A"/>
<path d="M61.5707 18.6238C61.0443 18.6238 60.5395 18.8328 60.1673 19.205C59.7949 19.5771 59.5858 20.0819 59.5858 20.6083C59.5857 21.1348 59.7948 21.6397 60.167 22.0119C60.5391 22.3841 61.0439 22.5934 61.5703 22.5934C62.0967 22.5934 62.6016 22.3844 62.9739 22.0122C63.3461 21.64 63.5552 21.1351 63.5553 20.6087C63.5548 20.0826 63.3454 19.5781 62.9734 19.206C62.6013 18.8339 62.097 18.6245 61.5707 18.6238L61.5707 18.6238ZM61.5707 21.7455C61.2692 21.7455 60.98 21.6258 60.7668 21.4126C60.5536 21.1993 60.4337 20.9102 60.4337 20.6086C60.4337 20.3071 60.5536 20.0179 60.7667 19.8049C60.9799 19.5916 61.269 19.4718 61.5706 19.4718C61.8721 19.4718 62.1613 19.5916 62.3745 19.8049C62.5876 20.0181 62.7074 20.3072 62.7073 20.6088C62.707 20.9102 62.5872 21.199 62.3741 21.4121C62.161 21.6252 61.8721 21.745 61.5707 21.7454L61.5707 21.7455Z" fill="#1B1A1A"/>
<path d="M60.9852 8.78089C61.065 8.85812 61.1712 8.90198 61.2821 8.90369C61.339 8.90355 61.3952 8.89205 61.4475 8.8699C61.4981 8.84932 61.5441 8.81908 61.5832 8.78089C61.6232 8.74086 61.6549 8.6933 61.6766 8.64106C61.7452 8.48249 61.7078 8.29808 61.5832 8.17868C61.5444 8.13921 61.4983 8.10756 61.4476 8.08555C61.289 8.01812 61.1053 8.05503 60.9852 8.17868C60.8607 8.29821 60.8235 8.48262 60.8921 8.64106C60.9135 8.6933 60.9452 8.74086 60.9852 8.78089L60.9852 8.78089Z" fill="#1B1A1A"/>
<path d="M11.67 17.5016C10.4619 18.368 8.98436 18.8782 7.38765 18.8782C3.30786 18.8782 -0.00012207 15.5473 -0.00012207 11.4391C-0.00012207 7.33097 3.30786 4 7.38765 4C11.4674 4 14.7754 7.33097 14.7754 11.4391C14.7754 13.4933 13.9489 15.3531 12.6113 16.6993L17.8237 21.9479C18.0627 22.1886 18.0567 22.5746 17.8167 22.816C17.5752 23.0593 17.1908 23.061 16.9546 22.8231L11.6692 17.5009L11.67 17.5016ZM7.38765 18.003C10.9876 18.003 13.9063 15.0641 13.9063 11.4391C13.9063 7.81413 10.9876 4.87519 7.38765 4.87519C3.78768 4.87519 0.869028 7.81413 0.869028 11.4391C0.869028 15.0641 3.78768 18.003 7.38765 18.003Z" fill="#1B1A1A"/>
<ellipse cx="65.3228" cy="4.45279" rx="4.22164" ry="4.08353" transform="rotate(86.6539 65.3228 4.45279)" fill="#781414"/>
<path d="M64.1453 6.51843V6.19443H65.1173V2.75043L64.3433 3.25443L64.1753 2.97243L65.2193 2.28843H65.4833V6.19443H66.3953V6.51843H64.1453Z" fill="white"/>
</svg>
